<?xml version="1.0" standalone="no"?>
<!DOCTYPE svg PUBLIC "-//W3C//DTD SVG 20010904//EN"
 "http://www.w3.org/TR/2001/REC-SVG-20010904/DTD/svg10.dtd">
<svg version="1.0" xmlns="http://www.w3.org/2000/svg"
 width="1942.000000pt" height="1516.000000pt" viewBox="0 0 1942.000000 1516.000000"
 preserveAspectRatio="xMidYMid meet">
<metadata>
Created by potrace 1.16, written by Peter Selinger 2001-2019
</metadata>
<g transform="translate(0.000000,1516.000000) scale(0.100000,-0.100000)"
fill="#000000" stroke="none">
<path d="M11755 14573 c-100 -21 -203 -86 -261 -166 -47 -63 -84 -164 -84
-228 0 -21 -2 -39 -6 -39 -3 0 -463 -85 -1022 -190 -948 -176 -4208 -784
-5052 -941 -206 -38 -379 -67 -386 -65 -6 2 -14 19 -18 37 -11 57 -84 195
-146 277 -170 226 -423 352 -707 352 -131 0 -235 -19 -343 -61 -488 -195 -707
-764 -476 -1234 75 -153 173 -265 312 -359 l61 -41 -781 -1688 -781 -1687 -40
7 c-68 13 -179 5 -241 -17 -124 -43 -226 -142 -275 -268 -32 -81 -32 -232 0
-314 50 -129 157 -230 285 -270 48 -15 83 -19 162 -16 92 3 108 7 172 39 l71
35 433 -456 c239 -250 1506 -1582 2817 -2960 1311 -1378 2424 -2546 2473
-2596 l90 -91 -45 -62 c-88 -118 -135 -287 -124 -441 26 -366 318 -640 683
-640 558 0 884 607 576 1072 -15 23 -21 42 -16 47 5 5 472 441 1037 970 l1029
960 86 -58 c210 -141 411 -225 662 -277 121 -26 479 -26 602 -1 273 55 518
158 712 299 91 66 226 178 226 186 -1 4 -13 21 -28 38 -15 17 -81 94 -146 170
-66 76 -127 148 -137 158 -17 18 -20 17 -106 -51 -157 -125 -296 -198 -499
-259 -82 -25 -103 -27 -274 -28 -198 -1 -274 10 -408 60 -82 31 -209 97 -246
126 l-28 24 73 71 c41 38 881 825 1867 1746 l1793 1677 75 -66 c191 -166 413
-275 686 -336 139 -31 444 -33 583 -4 293 61 569 209 775 416 209 209 337 439
405 725 65 273 54 534 -36 793 -90 261 -190 425 -373 608 -172 171 -324 269
-553 355 -394 148 -873 107 -1248 -107 -65 -36 -82 -42 -90 -31 -5 8 -766 931
-1690 2051 -924 1121 -1681 2042 -1683 2046 -2 5 11 28 28 51 110 153 87 394
-52 532 -96 97 -251 146 -373 120z m138 -264 c42 -22 87 -74 98 -112 21 -80
-21 -169 -94 -196 -137 -52 -268 80 -216 216 30 81 141 129 212 92z m-456
-305 c1 -5 -788 -485 -1754 -1067 l-1756 -1058 -1480 353 -1481 354 0 114 0
114 335 62 c184 35 1533 286 2999 559 1466 273 2766 516 2890 539 124 24 229
43 234 42 6 -1 11 -6 13 -12z m76 -136 c-28 -37 -1908 -2346 -1922 -2361 -16
-16 -51 -9 -696 144 -374 89 -684 165 -688 169 -8 7 3288 2060 3307 2060 5 0
4 -6 -1 -12z m231 -123 c19 -6 19 -24 13 -832 -4 -454 -7 -956 -7 -1114 l0
-287 -72 -12 c-95 -16 -210 -60 -289 -112 -77 -49 -186 -158 -224 -223 -25
-41 -31 -46 -54 -40 -14 4 -300 72 -636 152 -335 79 -612 146 -614 149 -3 3
297 404 1547 2065 l223 297 47 -19 c26 -10 56 -21 66 -24z m1798 -1905 c824
-1064 1557 -2010 1628 -2102 l130 -168 -71 -77 c-39 -43 -96 -115 -126 -160
-30 -46 -57 -83 -59 -83 -2 0 -410 204 -907 454 -496 249 -1063 532 -1260 627
-275 134 -356 177 -351 189 41 103 43 322 4 445 -87 277 -309 476 -590 529
l-65 12 3 500 c1 274 5 776 8 1114 l6 615 62 21 c33 12 67 21 75 20 8 -1 689
-872 1513 -1936z m-9357 1243 c106 -33 196 -117 246 -228 18 -40 23 -69 23
-146 1 -90 -1 -99 -37 -171 -44 -89 -100 -144 -192 -188 -81 -38 -150 -46
-244 -26 -127 27 -220 99 -274 214 -30 62 -32 75 -32 172 0 95 3 111 28 162
41 83 107 152 182 189 101 50 191 56 300 22z m2144 -1008 c734 -190 1337 -347
1339 -349 5 -6 85 43 -1272 -770 -676 -405 -1233 -733 -1236 -729 -10 11 -640
1676 -640 1690 0 6 17 22 37 34 69 43 154 120 213 195 54 68 138 218 152 271
5 20 9 21 39 13 19 -5 634 -165 1368 -355z m-2469 -246 c52 -14 109 -21 187
-21 69 -1 114 -6 117 -12 110 -273 706 -1750 706 -1752 0 -1 -596 -361 -1325
-799 -1209 -726 -1326 -795 -1345 -783 -13 8 -20 20 -17 33 4 17 1517 3290
1548 3348 8 13 17 17 32 13 12 -4 56 -16 97 -27z m4813 -356 c455 -117 727
-192 725 -199 -2 -6 -244 -307 -538 -668 -526 -647 -535 -657 -565 -651 -131
28 -199 28 -304 -2 -226 -62 -387 -267 -394 -501 l-2 -70 -190 -41 c-1123
-243 -1761 -377 -1767 -372 -7 7 -388 1008 -388 1019 1 7 2678 1672 2689 1672
4 1 334 -84 734 -187z m1712 -446 l660 -172 2 -115 c1 -63 6 -131 12 -150 6
-19 7 -37 3 -40 -4 -4 -520 -190 -1147 -415 -627 -224 -1175 -421 -1217 -436
l-78 -28 -15 30 c-9 16 -12 35 -8 42 4 7 252 338 551 735 359 478 548 722 560
721 9 0 314 -77 677 -172z m1561 72 c76 -29 156 -105 196 -187 30 -61 33 -74
33 -162 0 -82 -4 -103 -27 -152 -51 -109 -157 -193 -277 -219 -109 -23 -255
26 -337 113 -67 72 -98 145 -102 246 -5 111 20 182 95 263 111 119 265 155
419 98z m-809 -711 c33 -69 108 -162 175 -217 74 -61 216 -134 308 -158 93
-25 271 -22 371 5 151 41 302 136 390 246 l48 61 678 -337 c373 -185 939 -464
1258 -619 319 -155 583 -284 587 -288 4 -3 -8 -51 -27 -106 -42 -127 -66 -244
-74 -365 l-6 -95 -45 -2 c-157 -8 -6541 -175 -6545 -171 -2 2 -9 98 -14 214
-6 115 -13 239 -16 275 l-5 66 65 18 c117 31 238 121 306 227 64 100 99 257
81 365 l-9 51 1211 435 c666 240 1218 436 1227 436 8 1 24 -18 36 -41z m-5988
-1029 c100 -248 180 -454 176 -457 -8 -8 -2767 -602 -2784 -599 -14 2 2395
1505 2415 1506 6 1 93 -202 193 -450z m3108 338 c98 -52 154 -135 161 -242 8
-130 -46 -228 -156 -282 -137 -67 -313 -7 -384 132 -25 49 -35 154 -19 212 21
77 101 160 186 191 43 16 173 9 212 -11z m8277 -353 c193 -37 396 -167 518
-332 59 -80 117 -204 145 -311 22 -86 24 -110 20 -236 -5 -152 -22 -225 -76
-341 -110 -236 -323 -408 -593 -481 -87 -24 -277 -23 -381 1 -348 80 -611 355
-672 701 -19 112 -19 206 1 302 58 282 227 503 479 628 177 88 349 109 559 69z
m-8883 -149 c40 -81 111 -162 190 -214 65 -44 169 -81 225 -81 33 0 34 -1 35
-42 0 -24 6 -150 12 -282 8 -158 9 -239 2 -241 -5 -2 -476 -15 -1045 -29 -569
-14 -1066 -27 -1103 -29 l-68 -2 -105 270 c-57 149 -105 277 -106 284 -2 12
201 59 957 222 528 114 963 208 967 208 4 1 22 -28 39 -64z m-2164 -671 c65
-163 97 -256 90 -259 -19 -5 -2827 -77 -2877 -73 -33 2 322 82 1310 295 745
160 1360 292 1365 292 6 0 56 -114 112 -255z m9368 -191 c10 -85 40 -217 70
-308 52 -158 167 -370 257 -473 16 -19 28 -38 26 -44 -2 -5 -386 -367 -853
-803 l-850 -793 -75 72 c-198 190 -393 307 -655 394 -545 182 -1136 88 -1590
-251 -261 -195 -481 -511 -574 -822 -76 -257 -83 -637 -16 -895 69 -265 209
-520 393 -712 35 -37 62 -71 61 -76 -3 -7 -1878 -1762 -2019 -1889 l-47 -42
-49 36 c-78 57 -185 103 -275 120 -46 8 -89 16 -94 18 -11 3 -314 6330 -303
6340 4 4 5896 170 6529 184 l57 1 7 -57z m-12847 -48 c128 -54 161 -210 66
-315 -105 -116 -291 -71 -330 79 -40 157 116 297 264 236z m6126 -147 c5 -64
296 -6216 296 -6260 0 -12 -13 -21 -41 -28 -23 -6 -43 -9 -46 -7 -9 9 -2394
6300 -2389 6304 3 4 1846 59 2073 62 l101 1 6 -72z m-1313 -2918 c648 -1603
1225 -3031 1283 -3173 l104 -257 -54 -35 c-30 -19 -56 -35 -59 -35 -3 0 -5610
5887 -5755 6044 l-57 61 29 45 c24 38 40 80 64 168 2 7 20 12 41 13 21 0 708
20 1528 44 820 23 1537 42 1594 41 l104 -1 1178 -2915z m5669 711 c216 -56
413 -166 555 -310 l70 -71 -50 -49 c-28 -27 -399 -374 -825 -771 l-774 -723
-65 69 c-103 111 -200 275 -242 411 -73 234 -66 526 18 748 54 145 165 309
283 418 165 153 351 247 575 292 101 20 355 13 455 -14z m-3860 -4468 c68 -22
141 -88 177 -161 73 -148 1 -342 -155 -419 -74 -36 -182 -39 -253 -6 -152 69
-225 237 -169 388 28 75 123 174 190 198 60 21 146 21 210 0z"/>
</g>
</svg>
